<svg width="40" height="40" viewBox="0 0 40 40" xmlns="http://www.w3.org/2000/svg" xmlns:xlink="http://www.w3.org/1999/xlink"><title>Alcohol</title><defs><circle id="a" cx="20" cy="20" r="20"/><path id="c" d="M0 30V0h22v30z"/></defs><g fill="none" fill-rule="evenodd"><mask id="b" fill="#fff"><use xlink:href="#a"/></mask><use fill="#F0F0F0" xlink:href="#a"/><g mask="url(#b)"><g transform="translate(9 5)"><mask id="d" fill="#fff"><use xlink:href="#c"/></mask><path fill="#FFF" mask="url(#d)" transform="matrix(1 0 0 -1 0 36)" d="M11 14l7 8H4z"/><path d="M13.98 8.095c-.176 0-.336.222-.428.596a2.88 2.88 0 0 0-.059.94c.031.322.112.596.226.769.078.12.168.183.26.183.176 0 .335-.223.427-.596.07-.284.09-.618.059-.94-.031-.324-.112-.598-.226-.77-.078-.12-.168-.182-.26-.182z" fill="#5A5A5A" mask="url(#d)" transform="rotate(25 13.979 9.339)"/><path d="M20.658 9.16a.581.581 0 0 0-.04.046l-3.63 4.686h-3.16a2.674 2.674 0 0 0-1.133-2.415l.139-.233a.597.597 0 0 0-.19-.806.562.562 0 0 0-.782.195l-.252.424a2.466 2.466 0 0 0-.326-.022c-1.407 0-2.552 1.188-2.552 2.648 0 .07.003.14.008.21H5.013l-3.63-4.687a.591.591 0 0 0-.041-.047c-.222-.23-.256-1.004-.102-1.402h19.52c.154.398.12 1.172-.102 1.402zm-7.96 4.523c0 .198-.037.39-.11.57-.221.55-.733.906-1.304.906a1.41 1.41 0 0 1-1.3-.897c-.005-.013-.01-.025-.015-.038a1.525 1.525 0 0 1-.098-.541c0-.814.634-1.476 1.413-1.476.78 0 1.414.662 1.414 1.476zm-1.244 7.352a.65.65 0 0 1-.908 0L5.92 15.064h3.186a2.527 2.527 0 0 0 2.178 1.266c.901 0 1.72-.486 2.178-1.266h2.618l-4.626 5.97zM21.467 6.759a.561.561 0 0 0-.404-.174h-5.467L18.974.891a.597.597 0 0 0-.19-.805.56.56 0 0 0-.782.195l-3.74 6.304H.937a.561.561 0 0 0-.404.174c-.702.73-.71 2.446-.025 3.199l9.17 11.836a1.792 1.792 0 0 0 .753.504v6.53H5.204a.578.578 0 0 0-.57.586c0 .324.255.586.57.586h11.592c.315 0 .57-.262.57-.586a.578.578 0 0 0-.57-.586H11.57v-6.53a1.792 1.792 0 0 0 .753-.504l5.385-6.95a.594.594 0 0 0 .119-.292c.03.005.06.013.089.023l3.577-4.617c.685-.753.677-2.47-.025-3.199z" fill="#5A5A5A" mask="url(#d)"/></g></g><circle stroke="#707070" fill="#75AF34" cx="20.5" cy="18.5" r="2.5"/></g></svg>