<svg width="40" height="40" viewBox="0 0 40 40" xmlns="http://www.w3.org/2000/svg" xmlns:xlink="http://www.w3.org/1999/xlink"><title>American</title><defs><circle id="a" cx="20" cy="20" r="20"/></defs><g fill="none" fill-rule="evenodd"><mask id="b" fill="#fff"><use xlink:href="#a"/></mask><use fill="#FFF" xlink:href="#a"/><circle mask="url(#b)" cx="20" cy="20" r="20"/><g mask="url(#b)"><path fill="#E50101" d="M39-1v3H-1v-3zm1 6v3H0V5zm0 6v3H0v-3zm0 6v3H0v-3zm0 6v3H0v-3zm0 6v3H0v-3zm0 6v3H0v-3z"/><path fill="#123CA2" d="M0 0h20v20H0z"/><path fill="#FFF" d="M2.5 18.25l-.882.464.169-.982-.714-.696.986-.143L2.5 16l.44.893.987.143-.714.696.169.982zm5 0l-.882.464.169-.982-.714-.696.986-.143L7.5 16l.44.893.987.143-.714.696.169.982zm5 0l-.882.464.169-.982-.714-.696.986-.143L12.5 16l.44.893.987.143-.714.696.169.982zm5 0l-.882.464.169-.982-.714-.696.986-.143L17.5 16l.44.893.987.143-.714.696.169.982zm-15-5l-.882.464.169-.982-.714-.696.986-.143L2.5 11l.44.893.987.143-.714.696.169.982zm5 0l-.882.464.169-.982-.714-.696.986-.143L7.5 11l.44.893.987.143-.714.696.169.982zm5 0l-.882.464.169-.982-.714-.696.986-.143L12.5 11l.44.893.987.143-.714.696.169.982zm5 0l-.882.464.169-.982-.714-.696.986-.143L17.5 11l.44.893.987.143-.714.696.169.982zm-10-5l-.882.464.169-.982-.714-.696.986-.143L7.5 6l.44.893.987.143-.714.696.169.982zm5 0l-.882.464.169-.982-.714-.696.986-.143L12.5 6l.44.893.987.143-.714.696.169.982zm5 0l-.882.464.169-.982-.714-.696.986-.143L17.5 6l.44.893.987.143-.714.696.169.982zm-5-5l-.882.464.169-.982-.714-.696.986-.143L12.5 1l.44.893.987.143-.714.696.169.982zm5 0l-.882.464.169-.982-.714-.696.986-.143L17.5 1l.44.893.987.143-.714.696.169.982z"/></g></g></svg>