<svg width="40" height="40" viewBox="0 0 40 40" xmlns="http://www.w3.org/2000/svg" xmlns:xlink="http://www.w3.org/1999/xlink"><title>Chinese</title><defs><circle id="a" cx="20" cy="20" r="20"/></defs><g fill="none" fill-rule="evenodd"><mask id="b" fill="#fff"><use xlink:href="#a"/></mask><use fill="#E50101" xlink:href="#a"/><g mask="url(#b)" fill="#FFE700"><path d="M10.5 17.25l-4.408 2.318.842-4.91-3.567-3.476 4.929-.716L10.5 6l2.204 4.466 4.929.716-3.567 3.477.842 4.909zm10-10.5l-1.47.773.281-1.637-1.189-1.159 1.643-.238L20.5 3l.735 1.489 1.643.238-1.19 1.16.281 1.636zm0 16l-1.47.773.281-1.637-1.189-1.159 1.643-.238L20.5 19l.735 1.489 1.643.238-1.19 1.16.281 1.636zm5-11l-1.47.773.281-1.637-1.189-1.159 1.643-.238L25.5 8l.735 1.489 1.643.238-1.19 1.16.281 1.636zm0 6l-1.47.773.281-1.637-1.189-1.159 1.643-.238L25.5 14l.735 1.489 1.643.238-1.19 1.16.281 1.636z"/></g></g></svg>