<svg width="60" height="60" viewBox="0 0 60 60" xmlns="http://www.w3.org/2000/svg"><title>Email</title><g fill="none" fill-rule="evenodd"><circle fill="#FFF" cx="30" cy="30" r="30"/><path d="M40 27.067a6.574 6.574 0 0 1-1.116.97c-1.864 1.262-3.739 2.534-5.558 3.851-.938.692-2.098 1.54-3.315 1.54h-.022c-1.217 0-2.377-.848-3.315-1.54-1.82-1.328-3.694-2.589-5.547-3.85A6.241 6.241 0 0 1 20 27.067v8.862a1.79 1.79 0 0 0 1.786 1.785h16.428A1.79 1.79 0 0 0 40 35.929v-8.862zm0-3.281c0-.982-.815-1.786-1.786-1.786H21.786C20.592 22 20 22.938 20 24.031c0 1.016 1.127 2.277 1.92 2.813 1.73 1.205 3.482 2.41 5.212 3.627.725.502 1.953 1.529 2.857 1.529h.022c.904 0 2.132-1.027 2.857-1.529 1.73-1.217 3.482-2.422 5.224-3.627.982-.681 1.908-1.808 1.908-3.058z" fill="#F82B2B"/></g></svg>