<svg width="60" height="60" viewBox="0 0 60 60" xmlns="http://www.w3.org/2000/svg"><title>Facebook</title><g fill="none" fill-rule="evenodd"><path d="M30 60c16.569 0 30-13.431 30-30C60 13.431 46.569 0 30 0 13.431 0 0 13.431 0 30c0 16.569 13.431 30 30 30z" fill="#FFF"/><path d="M33.934 20.526c.762 0 1.797.136 2.636.312.195.04.41 0 .586-.117a.713.713 0 0 0 .312-.508l.527-3.807c.04-.352-.175-.723-.546-.82-1.367-.39-2.851-.586-4.393-.586-4.667 0-6.932 2.226-6.932 6.834v2.011h-2.382a.742.742 0 0 0-.742.742v3.905c0 .43.332.761.742.761h2.382V44.25c0 .41.332.742.742.742h4.881c.39 0 .723-.332.723-.742V29.253h3.944c.39 0 .703-.312.742-.702l.273-3.905a.748.748 0 0 0-.195-.567.697.697 0 0 0-.527-.234H32.47v-1.718c0-1.289.136-1.601 1.464-1.601z" fill="#F82B2B"/></g></svg>