<svg width="40" height="40" viewBox="0 0 40 40" xmlns="http://www.w3.org/2000/svg" xmlns:xlink="http://www.w3.org/1999/xlink"><title>Family Friendly</title><defs><circle id="a" cx="20" cy="20" r="20"/></defs><g fill="none" fill-rule="evenodd"><mask id="b" fill="#fff"><use xlink:href="#a"/></mask><use fill="#84CDFF" xlink:href="#a"/><g mask="url(#b)"><path d="M26.94 5.823c.847 1.05 1.23 1.804 1.146 2.262-.242 1.339-2.06 1.855-2.029 2.743.048 1.345.346 2.575.895 3.689l-6.693-3.459 3.575-1.287c-.138-1.609.05-2.675.564-3.197.514-.522 1.361-.772 2.542-.75z" fill="#FFFD35"/><path d="M17.485 13.293l9.063 4.226a2 2 0 0 1 .967 2.658l-6.762 14.5a2 2 0 0 1-2.658.968l-9.063-4.226a2 2 0 0 1-.967-2.658l6.762-14.501a2 2 0 0 1 2.658-.967z" fill="#FFF"/><path d="M16.578 12.87l10.876 5.071a2 2 0 0 0-.967-2.658l-7.25-3.38a2 2 0 0 0-2.659.967z" fill="#F99"/><path d="M20.782 34.047a2.002 2.002 0 0 1-2.658.968L9.665 31.07a2.002 2.002 0 0 1-.967-2.657l.282-.605 3.02 1.41a.667.667 0 0 0 .564-1.21L9.544 26.6l1.126-2.417 1.813.845a.667.667 0 0 0 .563-1.208l-1.812-.845 1.127-2.417 3.02 1.409a.667.667 0 0 0 .564-1.209l-3.02-1.409 1.126-2.416 1.813.845a.667.667 0 0 0 .563-1.209l-1.812-.845.281-.604a2.002 2.002 0 0 1 2.658-.967l8.46 3.944a2.003 2.003 0 0 1 .967 2.658l-6.199 13.292zm-3.268-21.385a1.336 1.336 0 0 1 1.772-.644l7.25 3.38c.666.311.955 1.107.645 1.772l-.029.062a3.335 3.335 0 0 0-.575-.343l-8.46-3.945a3.335 3.335 0 0 0-.632-.22l.029-.062zm4.767-1.86c.683-.15 1.39-.304 1.716-1.001.301-.646.3-1.12.298-1.538-.001-.376-.003-.671.225-1.16.175-.376.508-.645.913-.737a1.34 1.34 0 0 1 1.166.287c.482.395.593 1.098.271 1.713-.215.412-.425.583-.687.8-.302.245-.677.554-.978 1.199-.325.697.012 1.338.337 1.957.214.409.433.863.546 1.396l-5.228-2.437c.482-.257.97-.38 1.421-.48zM28.1 18.35c.002-.005.006-.007.009-.012l.281-.604a2.673 2.673 0 0 0-.882-3.31c.013-1.203-.441-2.07-.783-2.722-.143-.27-.356-.676-.31-.775.173-.37.35-.514.616-.733.302-.249.68-.558 1.021-1.21.619-1.18.37-2.563-.606-3.363a2.676 2.676 0 0 0-2.308-.555 2.65 2.65 0 0 0-1.826 1.473c-.354.759-.352 1.298-.35 1.73 0 .345.003.593-.172.969-.046.097-.496.195-.793.261-.72.157-1.676.367-2.589 1.15a2.67 2.67 0 0 0-3.102 1.45l-.282.604c-.002.005-.001.01-.003.015a3.323 3.323 0 0 0-2.332 1.839L7.49 27.849a3.338 3.338 0 0 0 1.612 4.43l8.459 3.944a3.338 3.338 0 0 0 4.43-1.612l6.198-13.293a3.323 3.323 0 0 0-.09-2.968z" fill="#5A5A5A"/></g></g></svg>