<svg width="200" height="97" viewBox="0 0 200 97" xmlns="http://www.w3.org/2000/svg"><title>Group</title><g fill="none" fill-rule="evenodd"><rect fill="#F82B2B" width="200" height="97" rx="10"/><path d="M42.383 51.534c-.085.19-.17.363-.257.519A12.92 12.92 0 0 1 39.1 55.73a13.886 13.886 0 0 1-4.186 2.39c-1.57.572-3.27.858-5.103.858-2.038 0-3.901-.337-5.592-1.011a11.491 11.491 0 0 1-4.37-3.065c-1.222-1.368-2.17-3.064-2.842-5.086C16.336 47.794 16 45.435 16 42.738c0-2.696.336-5.025 1.008-6.986.673-1.96 1.62-3.564 2.842-4.81 1.222-1.247 2.7-2.176 4.43-2.789 1.732-.613 3.657-.919 5.776-.919 1.956 0 3.738.266 5.347.797 1.61.53 3.015 1.307 4.217 2.328a11.15 11.15 0 0 1 2.842 3.677c.061.126.121.264.18.413a3.188 3.188 0 0 1-2.96 4.367h-.66a5 5 0 0 1-4.359-2.55c-.27-.48-.553-.846-.849-1.096-1.038-.878-2.312-1.318-3.82-1.318-.855 0-1.65.143-2.383.43-.733.285-1.375.765-1.925 1.44-.55.674-.988 1.572-1.314 2.696-.325 1.123-.488 2.502-.488 4.136 0 3.31.59 5.76 1.772 7.354 1.181 1.593 2.546 2.39 4.094 2.39 1.549 0 2.873-.429 3.973-1.287.324-.252.628-.636.912-1.152a5 5 0 0 1 4.378-2.586h.607a3.026 3.026 0 0 1 2.763 4.261zm22.508 2.644V39.49c0-2.288-.398-3.85-1.192-4.688-.795-.837-2.109-1.256-3.942-1.256-.978 0-1.854.194-2.628.582a5.71 5.71 0 0 0-1.955 1.593 6.997 6.997 0 0 0-1.192 2.33 9.83 9.83 0 0 0-.397 2.849v13.309a3.972 3.972 0 0 1-7.945 0V20.972a3.972 3.972 0 0 1 7.945 0v8.568a.77.77 0 0 0 1.314.544 8.418 8.418 0 0 1 2.047-1.502c.774-.408 1.63-.735 2.567-.98a11.545 11.545 0 0 1 2.933-.368c3.096 0 5.612.848 7.547 2.543 1.936 1.696 2.903 4.055 2.903 7.078v17.323a4.003 4.003 0 0 1-8.006 0zm25.973-1.88c4.848 0 7.272-3.064 7.272-9.192 0-6.087-2.424-9.131-7.272-9.131-4.849 0-7.273 3.044-7.273 9.13 0 6.129 2.424 9.193 7.273 9.193zm0 6.68c-2.445 0-4.625-.388-6.54-1.165-1.914-.776-3.534-1.859-4.858-3.248-1.324-1.389-2.332-3.064-3.025-5.025-.693-1.96-1.039-4.105-1.039-6.434 0-2.37.356-4.535 1.07-6.496.712-1.961 1.741-3.636 3.086-5.025 1.344-1.39 2.964-2.462 4.858-3.217 1.895-.756 4.044-1.134 6.448-1.134 2.363 0 4.481.378 6.355 1.134 1.874.755 3.474 1.818 4.798 3.186 1.324 1.369 2.342 3.034 3.055 4.995.713 1.96 1.07 4.146 1.07 6.557 0 2.41-.357 4.586-1.07 6.526-.713 1.94-1.731 3.606-3.055 4.995-1.324 1.389-2.934 2.461-4.828 3.217-1.895.756-4.003 1.134-6.325 1.134zM143.97 54.3V39.92c0-1.84-.428-3.33-1.283-4.474-.856-1.144-1.997-1.716-3.423-1.716-1.467 0-2.679.613-3.636 1.838-.957 1.226-1.436 2.758-1.436 4.596V54.21a3.972 3.972 0 0 1-7.945 0V40.042c0-1.226-.081-2.227-.244-3.003-.163-.776-.438-1.39-.825-1.838a3.108 3.108 0 0 0-1.498-.95c-.61-.184-1.344-.276-2.2-.276-3.218 0-4.828 1.96-4.828 5.883v14.35a3.972 3.972 0 0 1-7.945 0v-22.45a3.728 3.728 0 0 1 3.729-3.727h1.521c1.219 0 2.206.987 2.206 2.206a.705.705 0 0 0 1.264.431c.935-1.21 1.736-1.987 2.403-2.331 1.426-.735 3.137-1.103 5.134-1.103 1.018 0 1.925.082 2.72.245a6.58 6.58 0 0 1 2.138.827 8.695 8.695 0 0 1 1.803 1.502c.228.245.524.607.89 1.087a1 1 0 0 0 1.603-.015c.933-1.278 1.752-2.116 2.457-2.512 1.345-.756 2.974-1.134 4.89-1.134 1.507 0 2.892.255 4.155.766 1.263.51 2.343 1.226 3.239 2.145.896.92 1.6 1.991 2.108 3.217.51 1.226.764 2.533.764 3.922V54.3a3.88 3.88 0 1 1-7.761 0zm25.117-2.125c4.564 0 6.845-3.104 6.845-9.314 0-2.697-.631-4.893-1.894-6.588-1.263-1.696-2.893-2.543-4.89-2.543-1.914 0-3.513.796-4.797 2.39-1.283 1.593-1.925 3.677-1.925 6.25 0 6.537 2.22 9.805 6.661 9.805zM154.91 76.09V31.85a3.82 3.82 0 0 1 3.82-3.82h1.98a1.87 1.87 0 0 1 1.87 1.84.832.832 0 0 0 1.37.62c2.557-2.17 4.901-3.256 7.033-3.256 1.874 0 3.616.368 5.225 1.103a11.42 11.42 0 0 1 4.125 3.187c1.141 1.389 2.037 3.084 2.69 5.086.651 2.002.977 4.27.977 6.802 0 2.288-.275 4.382-.825 6.282-.55 1.9-1.355 3.544-2.414 4.933a10.916 10.916 0 0 1-3.88 3.217c-1.529.756-3.27 1.134-5.226 1.134-1.695 0-3.627-.74-5.795-2.22a2 2 0 0 0-3.127 1.652v17.679a3.911 3.911 0 0 1-7.822 0zM147.145 65.009c.67-.038 2.293.043 2.923.278 1.45.541.99 1.69.093 2.566C142.37 75.458 128.878 80 114.067 80c-7.564 0-17.925-1.662-31.083-4.988a100 100 0 0 0-27.967-2.99L25.24 73.055C16 73.264 16 72.727 16 68.922c0-3.806 0-3.913 9.241-3.913h44.903c.004 0 25.67 0 77.001 0z" fill="#FFF"/></g></svg>