<svg width="40" height="40" viewBox="0 0 40 40" xmlns="http://www.w3.org/2000/svg" xmlns:xlink="http://www.w3.org/1999/xlink"><title>Opening</title><defs><circle id="a" cx="20" cy="20" r="20"/><path id="c" d="M0 29.962h30V0H0z"/></defs><g fill="none" fill-rule="evenodd"><mask id="b" fill="#fff"><use xlink:href="#a"/></mask><use stroke="#DFDFDF" fill="#FFF" xlink:href="#a"/><g mask="url(#b)"><g transform="translate(5 5)"><circle fill="#FFF" cx="15" cy="15" r="15"/><mask id="d" fill="#fff"><use xlink:href="#c"/></mask><path d="M15 0C6.729 0 0 6.729 0 15s6.729 15 15 15 15-6.729 15-15S23.271 0 15 0zm0 28.999C7.28 28.999 1.001 22.72 1.001 15 1.001 7.28 7.28 1.001 15 1.001c7.72 0 13.999 6.279 13.999 13.999 0 7.72-6.279 13.999-13.999 13.999z" fill="#F82B2B" mask="url(#d)"/></g><path d="M20.698 17.387v-5.033a.491.491 0 0 0-.483-.497.491.491 0 0 0-.483.497v5.033a1.957 1.957 0 0 0-1.377 1.418h-3.444a.49.49 0 0 0-.482.496.49.49 0 0 0 .482.497h3.444c.215.853.963 1.488 1.86 1.488 1.064 0 1.928-.89 1.928-1.985 0-.923-.617-1.691-1.445-1.914zm-.483 2.907c-.532 0-.965-.446-.965-.993 0-.547.433-.99.965-.99s.965.443.965.99c0 .547-.433.993-.965.993zm-.358-11.008c.236 0 .429-.127.429-.286v-.285c0-.16-.193-.286-.429-.286s-.428.126-.428.286V9c0 .159.192.286.428.286zm0 21.428c-.236 0-.428.129-.428.286v.286c0 .157.192.285.428.285s.429-.128.429-.285V31c0-.157-.193-.286-.429-.286zm11.43-10.285H31c-.158 0-.287.192-.287.428 0 .237.129.429.287.429h.286c.158 0 .284-.192.284-.43 0-.235-.126-.427-.284-.427zM9 20.429h-.287c-.158 0-.284.192-.284.428 0 .237.126.429.284.429H9c.158 0 .287-.192.287-.43 0-.235-.129-.427-.287-.427zm18.602-8.479l-.224.224a.317.317 0 0 0 .448.448l.224-.224a.317.317 0 0 0-.448-.448zM12.174 27.38l-.224.222a.318.318 0 0 0 .224.54c.082 0 .162-.03.224-.092l.224-.224a.316.316 0 1 0-.448-.447zm15.652 0a.314.314 0 0 0-.448 0 .316.316 0 0 0 0 .446l.224.224a.318.318 0 0 0 .448 0 .318.318 0 0 0 0-.448l-.224-.222zM12.398 11.95a.317.317 0 0 0-.448.448l.224.224a.318.318 0 0 0 .448 0 .317.317 0 0 0 0-.448l-.224-.224z" fill="#F82B2B"/></g></g></svg>