<svg width="40" height="40" viewBox="0 0 40 40" xmlns="http://www.w3.org/2000/svg" xmlns:xlink="http://www.w3.org/1999/xlink"><title>Open Late 2</title><defs><circle id="a" cx="20" cy="20" r="20"/><path id="b" d="M0 27h27V0H0z"/></defs><g fill="none" fill-rule="evenodd"><use fill="#3A3A3A" xlink:href="#a"/><path d="M23 28c5.523 0 10-2.015 10-4.5 0-1.656-1.329-3.001-4.082-4.5-1.378-.75-3.374-2.422-5.216-2.422-1.815 0-2.94.78-4.508 1.512C15.988 19.585 13 21.832 13 23.5c0 2.485 4.477 4.5 10 4.5z" fill="#ABABAB"/><path d="M11.813 9.717c2.385-3.22 5.42-2.404 8.187-2.643 1.75-.152 2.702-.505 4.208 0 .734.246 2.119.418 2.792 1.45.401.615-2.587.513-5.645 2.072-2.99 1.525-2.024 6.637-4.673 8.404-2.11 1.408-3.048 1.84-3.137 2.335-.608 3.397-.11 4.38 2.63 5.454 5.768 2.26 11.917 2.833 10.825 3.998-4.05 4.317-13.335 1.829-17.136-3.998-3.8-5.828-2.68-10.823 1.949-17.072zm12.658 21.021a11.95 11.95 0 0 1-3.971.68c-6.572 0-11.918-5.346-11.918-11.918 0-6.572 5.346-11.918 11.918-11.918 1.358 0 2.703.232 3.973.68a11.923 11.923 0 0 0-7.89 10.138 5.019 5.019 0 0 0-3.73 4.844 5.015 5.015 0 0 0 5.01 5.01h2.5a11.853 11.853 0 0 0 4.108 2.484z" fill="#FFF"/><g transform="translate(7 6)"><mask id="c" fill="#fff"><use xlink:href="#b"/></mask><path d="M21.99 20.672H10.863a3.432 3.432 0 0 1-3.427-3.428 3.432 3.432 0 0 1 4.583-3.227l.868.31.176-.904a3.43 3.43 0 0 1 3.364-2.77 3.43 3.43 0 0 1 3.364 2.77l.175.905.868-.311a3.432 3.432 0 0 1 4.584 3.228 3.432 3.432 0 0 1-3.428 3.427zm-.876-8.36a5.019 5.019 0 0 0-4.687-3.242 5.019 5.019 0 0 0-4.688 3.241 5.013 5.013 0 0 0-.549-.065 10.332 10.332 0 0 1 8.723-8.967l.674-.1c.352-.06.527-.226.527-.502 0-.275-.175-.501-.527-.678l-.399-.228A13.501 13.501 0 0 0 13.5 0a13.412 13.412 0 0 0-9.546 3.954A13.412 13.412 0 0 0 0 13.5c0 3.606 1.404 6.996 3.954 9.546A13.412 13.412 0 0 0 13.5 27c2.347 0 4.66-.613 6.688-1.771l.399-.228c.352-.147.527-.374.527-.681 0-.308-.175-.474-.527-.498l-.674-.1a10.231 10.231 0 0 1-3.963-1.468h6.04a5.015 5.015 0 0 0 5.01-5.01 5.015 5.015 0 0 0-5.886-4.933z" fill="#FFF" mask="url(#c)"/></g></g></svg>