<svg width="40" height="40" viewBox="0 0 40 40" xmlns="http://www.w3.org/2000/svg" xmlns:xlink="http://www.w3.org/1999/xlink"><title>Parking</title><defs><circle id="a" cx="20" cy="20" r="20"/></defs><g fill="none" fill-rule="evenodd"><mask id="b" fill="#fff"><use xlink:href="#a"/></mask><use fill="#3A5EA8" xlink:href="#a"/><path d="M28.553 15.558c0 2.61-.855 4.611-2.565 6.002s-4.144 2.086-7.302 2.086h-2.6V33H12V8h7.199c3.124 0 5.463.638 7.02 1.915 1.556 1.277 2.334 3.158 2.334 5.643zM16.087 20.21h2.172c2.097 0 3.636-.364 4.617-1.094.98-.73 1.47-1.87 1.47-3.42 0-1.436-.439-2.508-1.317-3.215-.877-.707-2.245-1.06-4.104-1.06h-2.838v8.79z" fill="#FFF" mask="url(#b)"/></g></svg>