<svg width="40" height="40" viewBox="0 0 40 40" xmlns="http://www.w3.org/2000/svg" xmlns:xlink="http://www.w3.org/1999/xlink"><title>Phone</title><defs><circle id="a" cx="20" cy="20" r="20"/><path id="b" d="M0 0v25h25V0z"/></defs><g fill="none" fill-rule="evenodd"><use stroke="#DFDFDF" fill="#FFF" xlink:href="#a"/><g transform="translate(8 8)"><mask id="c" fill="#fff"><use xlink:href="#b"/></mask><path d="M19.362 15.71c-.502-.52-1.108-.798-1.75-.798-.636 0-1.247.273-1.77.793l-1.635 1.623c-.135-.072-.269-.139-.398-.206-.187-.093-.363-.18-.513-.273-1.532-.969-2.924-2.231-4.26-3.864-.646-.814-1.08-1.5-1.396-2.195.424-.386.817-.788 1.2-1.175.145-.144.29-.293.435-.438 1.087-1.082 1.087-2.483 0-3.565L7.862 4.205c-.16-.16-.326-.324-.481-.49-.31-.319-.637-.649-.973-.958C5.906 2.263 5.305 2 4.674 2s-1.242.263-1.76.757l-.01.01-1.76 1.768A3.762 3.762 0 0 0 .021 6.931c-.124 1.504.321 2.906.663 3.823.838 2.251 2.09 4.338 3.959 6.574 2.267 2.695 4.994 4.823 8.11 6.322 1.19.562 2.78 1.226 4.554 1.34.109.005.223.01.326.01 1.196 0 2.2-.427 2.987-1.278.005-.01.015-.015.02-.025.27-.325.58-.619.906-.933.222-.211.45-.433.673-.665.512-.53.781-1.149.781-1.782 0-.64-.274-1.253-.797-1.768l-2.841-2.839zm1.853 5.426c-.006 0-.006.005 0 0-.202.216-.41.412-.632.628-.336.32-.678.655-.999 1.03-.522.557-1.138.82-1.946.82-.077 0-.16 0-.238-.005-1.537-.098-2.965-.696-4.036-1.206-2.93-1.411-5.502-3.416-7.64-5.956C3.96 14.33 2.78 12.372 1.999 10.27c-.481-1.282-.657-2.282-.58-3.225a2.36 2.36 0 0 1 .715-1.53l1.765-1.757c.253-.237.522-.366.786-.366.326 0 .59.196.756.36l.015.016c.316.294.616.598.932.922.16.165.326.33.492.5l1.413 1.407c.548.546.548 1.051 0 1.597-.15.15-.295.3-.445.443-.435.443-.85.856-1.3 1.257-.01.01-.02.016-.025.026-.445.443-.363.876-.27 1.17l.016.046c.368.886.885 1.721 1.672 2.715l.005.005c1.428 1.752 2.934 3.118 4.596 4.164.212.134.43.242.636.345.187.093.362.18.513.273.02.01.041.026.062.036.176.088.341.129.512.129.43 0 .699-.268.787-.356l1.77-1.762c.176-.175.455-.386.781-.386.321 0 .585.2.745.376l2.862 2.85c.534.525.534 1.066.006 1.612zM13.623 6.5a7.105 7.105 0 0 1 3.865 2.006 7.143 7.143 0 0 1 2.006 3.866c.062.37.38.628.745.628.045 0 .084-.006.13-.011a.757.757 0 0 0 .62-.874 8.643 8.643 0 0 0-2.425-4.679 8.64 8.64 0 0 0-4.678-2.426.76.76 0 0 0-.874.616.748.748 0 0 0 .61.875zm11.366 4.666a13.56 13.56 0 0 0-3.808-7.346A13.551 13.551 0 0 0 13.837.011a.718.718 0 0 0-.827.588.725.725 0 0 0 .592.833 12.133 12.133 0 0 1 6.564 3.404 12.106 12.106 0 0 1 3.402 6.566.716.716 0 0 0 .71.598c.043 0 .08-.005.123-.01a.708.708 0 0 0 .588-.824z" fill="#F82B2B" mask="url(#c)"/></g></g></svg>