<svg width="18" height="17" viewBox="0 0 18 17" xmlns="http://www.w3.org/2000/svg"><title>User Icon</title><path d="M17.195 14.738v1.927H.942v-1.927c0-.606 1.176-1.346 3.528-2.218 1.083-.412 1.82-.83 2.213-1.255.392-.424.588-1 .588-1.727 0-.266-.127-.563-.38-.89-.254-.328-.439-.77-.554-1.328a.538.538 0 0 0-.156-.327.645.645 0 0 0-.242-.145c-.08-.025-.161-.128-.242-.31-.08-.181-.132-.442-.155-.781 0-.194.028-.352.086-.473.058-.121.11-.194.156-.218l.069-.073a31.954 31.954 0 0 1-.208-1.6c-.046-.654.19-1.333.71-2.036C6.872.654 7.777.303 9.068.303c1.29 0 2.201.351 2.732 1.054.53.703.76 1.382.691 2.037l-.207 1.6c.207.096.311.35.311.763-.023.34-.075.6-.156.782-.08.181-.161.284-.242.309a.645.645 0 0 0-.242.145.538.538 0 0 0-.155.327c-.093.582-.271 1.03-.536 1.346-.266.315-.398.606-.398.872 0 .727.202 1.303.605 1.727.404.424 1.135.843 2.196 1.255 2.351.872 3.527 1.612 3.527 2.218z" fill="#A1A1A1" fill-rule="evenodd"/></svg>