<?xml version="1.0" encoding="UTF-8"?>
<svg width="105px" height="105px" viewBox="0 0 105 105" version="1.1" xmlns="http://www.w3.org/2000/svg" xmlns:xlink="http://www.w3.org/1999/xlink">
    <!-- Generator: Sketch 47.1 (45422) - http://www.bohemiancoding.com/sketch -->
    <title>Group 2</title>
    <desc>Created with Sketch.</desc>
    <defs></defs>
    <g id="Page-1" stroke="none" stroke-width="1" fill="none" fill-rule="evenodd">
        <g id="Desktop----Detail---Design" transform="translate(-70.000000, -3184.000000)">
            <g id="Group-8" transform="translate(50.000000, 2800.000000)">
                <g id="Group-5" transform="translate(0.000000, 364.000000)">
                    <g id="Group-2" transform="translate(20.000000, 20.000000)">
                        <rect id="Rectangle-12" fill="#E2E2E2" x="0" y="0" width="105" height="105"></rect>
                        <path d="M87.9777778,78.1088889 L87.9777778,86 L52.9888889,86 L18,86 L18,78.1088889 C18,75.627395 23.0621716,72.6000179 33.1866667,69.0266667 C37.8518752,67.3392508 41.0281397,65.6270457 42.7155556,63.89 C44.4029714,62.1529543 45.2466667,59.7955704 45.2466667,56.8177778 C45.2466667,55.7259205 44.7007462,54.5100067 43.6088889,53.17 C42.5170316,51.8299933 41.7229654,50.0185299 41.2266667,47.7355556 C41.1274069,47.139997 40.9040758,46.6933348 40.5566667,46.3955556 C40.2092575,46.0977763 39.8618536,45.8992598 39.5144444,45.8 C39.1670353,45.7007402 38.8196314,45.2788926 38.4722222,44.5344444 C38.1248131,43.7899963 37.901482,42.7229699 37.8022222,41.3333333 C37.8022222,40.5392553 37.9262951,39.8940766 38.1744444,39.3977778 C38.4225938,38.901479 38.6459249,38.6037042 38.8444444,38.5044444 L39.1422222,38.2066667 C38.7451832,35.7251728 38.4474084,33.5414909 38.2488889,31.6555556 C38.0503694,28.9755422 39.0677666,26.1963107 41.3011111,23.3177778 C43.5344556,20.4392449 47.4303426,19 52.9888889,19 C58.5474352,19 62.4681367,20.4392449 64.7511111,23.3177778 C67.0340855,26.1963107 68.0266682,28.9755422 67.7288889,31.6555556 L66.8355556,38.2066667 C67.7288934,38.6037057 68.1755556,39.6459175 68.1755556,41.3333333 C68.0762958,42.7229699 67.8529647,43.7899963 67.5055556,44.5344444 C67.1581464,45.2788926 66.8107425,45.7007402 66.4633333,45.8 C66.1159242,45.8992598 65.7685203,46.0977763 65.4211111,46.3955556 C65.073702,46.6933348 64.8503709,47.139997 64.7511111,47.7355556 C64.3540721,50.1177897 63.5848205,51.9540676 62.4433333,53.2444444 C61.3018461,54.5348213 60.7311111,55.7259205 60.7311111,56.8177778 C60.7311111,59.7955704 61.5996209,62.1529543 63.3366667,63.89 C65.0737124,65.6270457 68.2251624,67.3392508 72.7911111,69.0266667 C82.9156062,72.6000179 87.9777778,75.627395 87.9777778,78.1088889 Z" id="ava-2" fill="#B6B6B6"></path>
                    </g>
                </g>
            </g>
        </g>
    </g>
</svg>